<?xml version="1.0" standalone="no"?>
<!DOCTYPE svg PUBLIC "-//W3C//DTD SVG 20010904//EN"
 "http://www.w3.org/TR/2001/REC-SVG-20010904/DTD/svg10.dtd">
<svg version="1.0" xmlns="http://www.w3.org/2000/svg"
 width="40.000000pt" height="40.000000pt" viewBox="0 0 40.000000 40.000000"
 preserveAspectRatio="xMidYMid meet">

<g transform="translate(0.000000,40.000000) scale(0.100000,-0.100000)"
fill="#000000" stroke="none">
<path d="M44 356 l-34 -34 0 -116 c0 -181 14 -196 189 -196 177 0 191 15 191
196 l0 116 -34 34 -34 34 -122 0 -122 0 -34 -34z m272 9 c47 -19 64 -63 64
-165 0 -147 -33 -180 -180 -180 -147 0 -180 33 -180 180 0 100 17 145 62 165
44 19 188 19 234 0z"/>
<path d="M290 305 c0 -8 7 -15 15 -15 8 0 15 7 15 15 0 8 -7 15 -15 15 -8 0
-15 -7 -15 -15z"/>
<path d="M152 280 c-18 -11 -37 -32 -43 -47 -36 -94 87 -172 158 -100 79 79
-20 206 -115 147z m89 -13 c43 -33 50 -87 14 -122 -45 -46 -115 -24 -131 41
-16 62 67 120 117 81z"/>
</g>
</svg>
